<?xml version="1.0" encoding="UTF-8"?>
<svg version="1.1" xmlns="http://www.w3.org/2000/svg" width="500" height="500">
<path d="M0 0 C165 0 330 0 500 0 C500 165 500 330 500 500 C335 500 170 500 0 500 C0 335 0 170 0 0 Z " fill="#CCCCCC" transform="translate(0,0)"/>
<path d="M0 0 C2.31 0 4.62 0 7 0 C7 0.99 7 1.98 7 3 C8.69358643 2.99214478 8.69358643 2.99214478 10.42138672 2.98413086 C14.65201001 2.9658883 18.8826299 2.95449831 23.11328125 2.94506836 C24.93652941 2.94007183 26.75977362 2.93327236 28.58300781 2.92456055 C31.219411 2.91228813 33.85576074 2.90672475 36.4921875 2.90234375 C37.29365204 2.89718246 38.09511658 2.89202118 38.92086792 2.88670349 C50.27534888 2.88560406 59.51810168 3.75274898 68.625 11.125 C70.80032314 15.67340292 70.60409006 20.05541097 70 25 C68.20613357 29.68398457 65.27904407 31.52982456 61 34 C58.07857926 34.83404436 55.11852211 35.30907367 52.125 35.8125 C45.86207166 37.04628868 41.14558045 38.30540307 36.41015625 42.828125 C31.35370822 50.61589537 31.52890977 58.46522276 31.48828125 67.46484375 C31.47119525 68.91369547 31.45289392 70.3625333 31.43347168 71.81135559 C31.38514635 75.71059028 31.35534512 79.60975832 31.3298378 83.50920105 C31.30664333 86.75777399 31.27356515 90.00621615 31.24053478 93.25470161 C31.13853198 103.33694071 31.07253678 113.41924779 31.01489258 123.50182343 C30.99537657 126.77556443 30.97271097 130.04928029 30.95006847 133.32300091 C30.88756773 142.42110182 30.84557638 151.51911436 30.81966782 160.61738968 C30.81250964 162.74713081 30.80220981 164.87683704 30.79116821 167.00656128 C30.7715811 170.9575156 30.76940276 174.90836958 30.76953125 178.859375 C30.76240112 180.0237056 30.755271 181.18803619 30.7479248 182.38764954 C30.75094604 183.45565292 30.75396729 184.52365631 30.75708008 185.62402344 C30.75565506 186.54745544 30.75423004 187.47088745 30.75276184 188.42230225 C31.02855211 191.2976834 31.71040535 193.4202139 33 196 C35.1891417 197.36521094 35.1891417 197.36521094 37.875 198.125 C39.34453125 198.61033203 39.34453125 198.61033203 40.84375 199.10546875 C44.00296173 200.0008394 47.16965138 200.7274042 50.375 201.4375 C59.43787302 203.65364656 63.09047375 210.54332706 68 218 C69.9791404 221.95828079 69.66156177 226.8341226 68.38671875 231.0078125 C65.38270926 237.12169966 60.10998395 238.80894232 54.0625 241.125 C51.8239113 241.81156559 51.8239113 241.81156559 51 244 C38.97296483 246.22850762 25.82876696 245.15160744 13.65380859 245.13037109 C10.03608935 245.12505305 6.41849651 245.1303192 2.80078125 245.13671875 C-11.49415346 245.14038186 -25.72726357 244.79920042 -40 244 C-40 243.34 -40 242.68 -40 242 C-41.11375 241.938125 -42.2275 241.87625 -43.375 241.8125 C-49.33319061 241.03857133 -55.27695155 238.80683456 -59.5234375 234.4296875 C-61.95559872 230.72107288 -62.78961752 226.81347825 -62.57421875 222.4609375 C-61.35435255 217.2329395 -58.2598058 213.16951905 -55 209 C-54.47921875 208.31421875 -53.9584375 207.6284375 -53.421875 206.921875 C-47.39886052 200.44854168 -38.26890484 199.33486033 -29.95776367 197.57495117 C-27.70638296 197.01931174 -27.70638296 197.01931174 -25 195 C-23.43825687 191.25807385 -23.8598403 187.03763316 -23.87060547 183.04589844 C-23.86888431 182.24373964 -23.86716314 181.44158085 -23.86538982 180.61511421 C-23.86105063 177.946514 -23.86400492 175.27797607 -23.8671875 172.609375 C-23.86604587 170.72608416 -23.86456956 168.8427935 -23.86277771 166.95950317 C-23.85976922 161.92754621 -23.86398529 156.89562277 -23.87082291 151.86367035 C-23.87498805 148.75890634 -23.87795141 145.65414299 -23.88070679 142.54937744 C-23.89679438 108.68485795 -23.89679438 108.68485795 -24.26446533 74.82287598 C-24.29619028 72.8759238 -24.3234177 70.92889252 -24.34588623 68.98181152 C-24.37846184 66.35973467 -24.42988812 63.73879939 -24.48828125 61.1171875 C-24.49468124 60.39427521 -24.50108124 59.67136292 -24.50767517 58.92654419 C-24.67721192 53.15677155 -25.96701899 47.68079621 -29.5078125 43.01171875 C-35.67061026 37.96536986 -41.75469148 36.28672146 -49.5625 35.25 C-55.40243579 34.28078422 -59.33543249 31.64439839 -63 27 C-64.26297565 23.31810489 -64.33397134 19.87406753 -64 16 C-61.52975647 11.05951294 -57.94488802 7.452899 -53 5 C-47.48365806 3.78473913 -41.97320467 3.77993208 -36.3515625 3.68359375 C-35.33903412 3.66281265 -34.32650574 3.64203156 -33.28329468 3.62062073 C-30.06392902 3.55548402 -26.84448506 3.49640768 -23.625 3.4375 C-21.43618997 3.39428063 -19.24738773 3.35066527 -17.05859375 3.30664062 C-11.7058108 3.19983961 -6.35295078 3.098008 -1 3 C-0.67 2.01 -0.34 1.02 0 0 Z " fill="#072D56" transform="translate(261,148)"/>
<path d="M0 0 C0 0.99 0 1.98 0 3 C0.680625 2.855625 1.36125 2.71125 2.0625 2.5625 C14.36795091 0.20613706 27.60840962 -1.19976371 39 5 C42.93837971 7.71262249 46.49854489 10.87995629 49 15 C49 15.66 49 16.32 49 17 C49.66 17 50.32 17 51 17 C52.25227484 15.52295788 53.50166522 14.04172601 54.68359375 12.5078125 C56 11 56 11 59 9 C59 8.01 59 7.02 59 6 C60.39278017 5.34760842 61.78939212 4.70339448 63.1875 4.0625 C63.96480469 3.70285156 64.74210937 3.34320313 65.54296875 2.97265625 C77.64158094 -1.81677846 91.18853589 0.86598756 103 5 C102.67 6.32 102.34 7.64 102 9 C102.94875 9.28875 103.8975 9.5775 104.875 9.875 C108 11 108 11 110 13 C108.35 13 106.7 13 105 13 C105 13.66 105 14.32 105 15 C106.65 15 108.3 15 110 15 C110.33 15.66 110.66 16.32 111 17 C110.67 17.99 110.34 18.98 110 20 C110.99 20 111.98 20 113 20 C113 20.99 113 21.98 113 23 C103.31828626 23.30681487 93.85017817 22.64577961 84.21484375 21.78613281 C74.8183996 20.95477236 65.42267822 20.42224266 56 20 C55.34 21.98 54.68 23.96 54 26 C50.04 26 46.08 26 42 26 C41.01 23.525 41.01 23.525 40 21 C25.08595457 21.46114318 10.21962262 22.17330992 -4.65722656 23.33935547 C-21.11543433 24.6081389 -21.11543433 24.6081389 -24 22.625 C-25 21 -25 21 -25 19 C-23.02 19 -21.04 19 -19 19 C-19 17.35 -19 15.7 -19 14 C-18.01 13.67 -17.02 13.34 -16 13 C-15.67 11.35 -15.34 9.7 -15 8 C-13.35 7.67 -11.7 7.34 -10 7 C-10.33 5.35 -10.66 3.7 -11 2 C-7.17010894 0.19769832 -4.21878192 -0.19622241 0 0 Z " fill="#9CA0A5" transform="translate(220,104)"/>
<path d="M0 0 C0 0.99 0 1.98 0 3 C0.680625 2.855625 1.36125 2.71125 2.0625 2.5625 C14.33822082 0.21183006 27.64387447 -1.22511864 39 5 C41.58053586 6.85617492 43.71701594 8.76774892 46 11 C45.67 11.66 45.34 12.32 45 13 C44.175 12.236875 43.35 11.47375 42.5 10.6875 C38.99577695 7.75624233 35.34232046 6.30093811 31 5 C30.40574219 4.81566406 29.81148437 4.63132812 29.19921875 4.44140625 C19.75091732 2.54503314 9.87125596 3.92320679 0.5625 5.875 C-0.27224854 6.04862061 -1.10699707 6.22224121 -1.96704102 6.40112305 C-3.99639178 6.85921338 -6.00188406 7.4206521 -8 8 C-8.33 8.66 -8.66 9.32 -9 10 C-7.41638672 9.566875 -7.41638672 9.566875 -5.80078125 9.125 C7.77902364 5.63376013 25.05489655 2.2578334 38.1796875 8.84375 C40.62380689 10.39623785 42.88208745 12.02328162 45 14 C44.67 14.66 44.34 15.32 44 16 C43.01 15.1028125 43.01 15.1028125 42 14.1875 C35.49872633 9.44698795 29.21011469 8.44490702 21.375 8.5 C20.03356934 8.50314209 20.03356934 8.50314209 18.66503906 8.50634766 C8.52067241 8.73698147 -2.47095337 10.36779422 -12 14 C-12.33 14.66 -12.66 15.32 -13 16 C-12.23034912 15.81824219 -11.46069824 15.63648437 -10.66772461 15.44921875 C27.3402728 6.58305412 27.3402728 6.58305412 39 13 C41.4930161 15.4930161 42.38591925 17.7718385 44 21 C47.63 21 51.26 21 55 21 C54.505 23.475 54.505 23.475 54 26 C50.04 26 46.08 26 42 26 C41.01 23.525 41.01 23.525 40 21 C25.08595457 21.46114318 10.21962262 22.17330992 -4.65722656 23.33935547 C-21.11543433 24.6081389 -21.11543433 24.6081389 -24 22.625 C-25 21 -25 21 -25 19 C-23.02 19 -21.04 19 -19 19 C-19 17.35 -19 15.7 -19 14 C-18.01 13.67 -17.02 13.34 -16 13 C-15.67 11.35 -15.34 9.7 -15 8 C-13.35 7.67 -11.7 7.34 -10 7 C-10.33 5.35 -10.66 3.7 -11 2 C-7.17010894 0.19769832 -4.21878192 -0.19622241 0 0 Z " fill="#777878" transform="translate(220,104)"/>
<path d="M0 0 C4.30764815 1.56641751 8.06171464 3.68336156 12 6 C12 7.32 12 8.64 12 10 C0.51199214 10.09985564 -10.92335182 10.11936436 -22.38964844 9.35791016 C-30.92237912 8.82098003 -39.45451271 8.91473461 -48 9 C-48.433125 9.969375 -48.86625 10.93875 -49.3125 11.9375 C-51 15 -51 15 -54 16 C-57.32904889 16.2519693 -60.66239597 16.2311966 -64 16.25 C-64.91523438 16.270625 -65.83046875 16.29125 -66.7734375 16.3125 C-67.65257812 16.31765625 -68.53171875 16.3228125 -69.4375 16.328125 C-70.24058594 16.3374707 -71.04367187 16.34681641 -71.87109375 16.35644531 C-74 16 -74 16 -75.78515625 14.79199219 C-77.38374611 12.43394364 -77.2261203 10.78881704 -77 8 C-77.89380371 8.06058594 -78.78760742 8.12117187 -79.70849609 8.18359375 C-98.83628545 9.45665793 -117.81916005 10.3295677 -137 10 C-137 8.35 -137 6.7 -137 5 C-135.68 5 -134.36 5 -133 5 C-129.35303316 4.88262375 -125.70793919 4.71986334 -122.0625 4.5625 C-121.01489502 4.51810791 -119.96729004 4.47371582 -118.88793945 4.42797852 C-113.80602694 4.20356189 -108.75178345 3.92849701 -103.6875 3.4375 C-99.26172089 3.10742541 -94.87522435 2.942727 -90.4375 2.9375 C-88.65533081 2.93472046 -88.65533081 2.93472046 -86.8371582 2.93188477 C-81.557988 2.94000711 -76.27903626 2.96157907 -71 3 C-70.01 4.98 -70.01 4.98 -69 7 C-65.04 7 -61.08 7 -57 7 C-56.34 5.35 -55.68 3.7 -55 2 C-41.84732113 1.79875479 -28.91358792 2.36475016 -15.8125 3.5 C-14.0684187 3.64524534 -12.32427799 3.7897792 -10.58007812 3.93359375 C-6.38599315 4.28091987 -2.19281428 4.63766992 2 5 C1.01 2.525 1.01 2.525 0 0 Z " fill="#E0E4EC" transform="translate(331,122)"/>
<path d="M0 0 C0.66874384 1.64499042 1.33494074 3.29101648 2 4.9375 C2.37125 5.85402344 2.7425 6.77054687 3.125 7.71484375 C4 10 4 10 4 11 C-34.94 11 -73.88 11 -114 11 C-113.01 9.68 -112.02 8.36 -111 7 C-110.27648573 5.01985568 -109.59734611 3.02178685 -109 1 C-105.7 1.66 -102.4 2.32 -99 3 C-99 3.66 -99 4.32 -99 5 C-68.97 5 -38.94 5 -8 5 C-7.67 4.01 -7.34 3.02 -7 2 C-4.56723614 0.81480735 -2.71982714 0 0 0 Z " fill="#ACB4C2" transform="translate(320,387)"/>
<path d="M0 0 C2.84207597 0.14252623 5.66400181 0.23355061 8.5078125 0.28125 C9.34786835 0.29965942 10.18792419 0.31806885 11.05343628 0.33703613 C13.74388647 0.39576203 16.4344021 0.44851681 19.125 0.5 C21.79416714 0.55168311 24.46325862 0.60483875 27.1322937 0.66296387 C28.79182202 0.69908481 30.45143374 0.73162568 32.1111145 0.7598877 C37.46119965 0.87597649 42.68806875 1.34602018 48 2 C48 2.66 48 3.32 48 4 C49.010625 4.20625 50.02125 4.4125 51.0625 4.625 C55.6436814 5.94721089 58.85268591 8.46139821 62 12 C64.64571011 17.06135846 64.1984193 22.42221301 64 28 C63.01 28 62.02 28 61 28 C61.04640625 27.11957031 61.0928125 26.23914063 61.140625 25.33203125 C61.17671875 24.17058594 61.2128125 23.00914062 61.25 21.8125 C61.29640625 20.66394531 61.3428125 19.51539063 61.390625 18.33203125 C60.91901958 14.309237 59.85470231 12.81988887 57 10 C55.03905625 8.61972098 55.03905625 8.61972098 52.875 7.75 C52.19179688 7.43546875 51.50859375 7.1209375 50.8046875 6.796875 C43.64452821 4.76251219 35.89474005 4.83795506 28.4921875 4.68359375 C27.64069122 4.66281265 26.78919495 4.64203156 25.91189575 4.62062073 C23.23300017 4.55604249 20.55401983 4.49667417 17.875 4.4375 C16.04165844 4.39422718 14.20832497 4.35061035 12.375 4.30664062 C7.91675007 4.20045751 3.45841628 4.09894159 -1 4 C-1 3.01 -1 2.02 -1 1 C-3.31 1 -5.62 1 -8 1 C-8.33 2.32 -8.66 3.64 -9 5 C-25.5 5.33 -42 5.66 -59 6 C-57.68 5.34 -56.36 4.68 -55 4 C-55 3.34 -55 2.68 -55 2 C-50.26194639 0.81082257 -45.60779413 0.79607217 -40.75390625 0.71875 C-39.86517319 0.70034058 -38.97644012 0.68193115 -38.06077576 0.66296387 C-35.22808221 0.60441011 -32.39532969 0.55151913 -29.5625 0.5 C-25.83451589 0.43207419 -22.1067099 0.35838556 -18.37890625 0.28125 C-17.52873428 0.26767456 -16.67856232 0.25409912 -15.80262756 0.2401123 C-12.31036994 0.16752138 -9.05334171 0.00910422 -5.60131836 -0.58007812 C-3 -1 -3 -1 0 0 Z " fill="#7A89A4" transform="translate(269,147)"/>
<path d="M0 0 C2.475 1.98 2.475 1.98 5 4 C4.67 5.32 4.34 6.64 4 8 C4.66 8 5.32 8 6 8 C4.55746343 11.36591866 2.66735273 13.51047079 0 16 C0.99 15.34 1.98 14.68 3 14 C5.1875 14.375 5.1875 14.375 7 15 C6.51789063 15.39832031 6.03578125 15.79664062 5.5390625 16.20703125 C4.90742188 16.73683594 4.27578125 17.26664063 3.625 17.8125 C2.99851562 18.33457031 2.37203125 18.85664062 1.7265625 19.39453125 C-0.2221048 21.08225739 -0.2221048 21.08225739 -2 24 C-3.32 23.67 -4.64 23.34 -6 23 C-5.34 23 -4.68 23 -4 23 C-9.03480434 15.34776426 -14.1514746 11.30717913 -22.83203125 8.3828125 C-26.047729 7.8149956 -29.24607235 7.85347118 -32.5 7.875 C-33.20253906 7.87693359 -33.90507812 7.87886719 -34.62890625 7.88085938 C-40.78309518 7.93112045 -46.87957302 8.35086381 -53 9 C-53 8.01 -53 7.02 -53 6 C-54.32 5.67 -55.64 5.34 -57 5 C-55.68 4.34 -54.36 3.68 -53 3 C-52.67 3.66 -52.34 4.32 -52 5 C-50.06447266 4.76216797 -50.06447266 4.76216797 -48.08984375 4.51953125 C-33.1924186 2.87915371 -20.45641974 2.82158545 -8 12 C-7.79375 10.948125 -7.5875 9.89625 -7.375 8.8125 C-6.14310195 4.35592764 -3.68218037 2.64156418 0 0 Z " fill="#B1B4B9" transform="translate(273,98)"/>
<path d="M0 0 C1.43085938 0.06767578 1.43085938 0.06767578 2.890625 0.13671875 C12.06794041 1.0814424 18.79176357 5.55117039 26 11 C26 11.33 26 11.66 26 12 C23.79142945 11.85780436 21.58315013 11.71108153 19.375 11.5625 C18.14523437 11.48128906 16.91546875 11.40007812 15.6484375 11.31640625 C12 11 12 11 9.125 10.46875 C4.94183209 9.84127481 0.84743139 9.89372679 -3.375 9.9375 C-4.20644531 9.94201172 -5.03789062 9.94652344 -5.89453125 9.95117188 C-7.92971897 9.96286836 -9.96486923 9.98080065 -12 10 C-12 10.66 -12 11.32 -12 12 C-12.99 12 -13.98 12 -15 12 C-15.10634766 12.88945313 -15.10634766 12.88945313 -15.21484375 13.796875 C-16.290287 16.81453665 -17.87157792 17.58238632 -20.5625 19.25 C-21.38878906 19.77078125 -22.21507812 20.2915625 -23.06640625 20.828125 C-24.02353516 21.40820312 -24.02353516 21.40820312 -25 22 C-25 21.01 -25 20.02 -25 19 C-23.28515625 17.52734375 -23.28515625 17.52734375 -21.0625 15.9375 C-18.43746447 13.78006339 -17.17459132 12.62056811 -16.24609375 9.3203125 C-16.02628494 6.85705826 -15.92045745 4.47079039 -16 2 C-10.53011639 -0.46585093 -5.90698212 -0.32901584 0 0 Z " fill="#D8D9D9" transform="translate(298,93)"/>
<path d="M0 0 C2.4930161 2.4930161 3.38591925 4.7718385 5 8 C8.63 8 12.26 8 16 8 C15.67 9.65 15.34 11.3 15 13 C11.04 13 7.08 13 3 13 C2.34 11.35 1.68 9.7 1 8 C-17.09642491 8.58753522 -17.09642491 8.58753522 -35.15625 9.8125 C-40.43279933 10.16040435 -45.71502829 10.07784737 -51 10 C-51 9.67 -51 9.34 -51 9 C-34.62961667 6.54892419 -18.60108422 4.24730601 -2 5 C-5.42573937 4.22471521 -8.57239245 3.88081222 -12.08203125 3.90234375 C-13.01337891 3.90556641 -13.94472656 3.90878906 -14.90429688 3.91210938 C-15.86400391 3.92048828 -16.82371094 3.92886719 -17.8125 3.9375 C-18.79154297 3.94201172 -19.77058594 3.94652344 -20.77929688 3.95117188 C-23.18626111 3.96291316 -25.59309857 3.97933581 -28 4 C-28 3.67 -28 3.34 -28 3 C-24.57426063 2.22471521 -21.42760755 1.88081222 -17.91796875 1.90234375 C-16.98662109 1.90556641 -16.05527344 1.90878906 -15.09570312 1.91210938 C-14.13599609 1.92048828 -13.17628906 1.92886719 -12.1875 1.9375 C-11.20845703 1.94201172 -10.22941406 1.94652344 -9.22070312 1.95117188 C-6.81373889 1.96291316 -4.40690143 1.97933581 -2 2 C-6.49374103 0.50208632 -10.9178429 0.81558464 -15.625 0.8125 C-17.06552734 0.79413086 -17.06552734 0.79413086 -18.53515625 0.77539062 C-23.95862541 0.76435236 -28.81675526 1.22963815 -34.07519531 2.55249023 C-37.73217208 3.40272342 -41.27001948 3.11841208 -45 3 C-36.39040489 -5.60959511 -9.98867195 -5.49727847 0 0 Z " fill="#414349" transform="translate(259,117)"/>
<path d="M0 0 C0 1.98 0 3.96 0 6 C-5.17565435 5.57337339 -10.22439058 4.99253445 -15.3125 3.9375 C-25.69361077 2.00476852 -35.00669888 2.63552187 -45 6 C-45 3 -45 3 -43.296875 0.921875 C-31.91816514 -8.59908631 -12.66259987 -4.43190995 0 0 Z " fill="#A0A3A9" transform="translate(323,109)"/>
<path d="M0 0 C0.94883057 -0.00539795 1.89766113 -0.0107959 2.87524414 -0.01635742 C7.4531582 0.03078685 11.23242414 0.11885751 15.375 2.3125 C15.375 2.6425 15.375 2.9725 15.375 3.3125 C13.065 3.3125 10.755 3.3125 8.375 3.3125 C10.685 3.9725 12.995 4.6325 15.375 5.3125 C15.375 5.6425 15.375 5.9725 15.375 6.3125 C14.11429687 6.27769531 12.85359375 6.24289063 11.5546875 6.20703125 C0.90313438 6.00958983 -9.2340878 6.6142601 -19.76269531 8.23876953 C-27.45536091 9.39225295 -34.8546701 9.63928958 -42.625 9.3125 C-42.295 8.3225 -41.965 7.3325 -41.625 6.3125 C-35.0625 5 -35.0625 5 -32.99633789 4.59643555 C-29.66385369 3.9417514 -26.36351167 3.24884824 -23.0625 2.4453125 C-15.28446653 0.6223359 -7.97596055 0.02810969 0 0 Z " fill="#A1A4A8" transform="translate(243.625,116.6875)"/>
<path d="M0 0 C0.73976074 -0.01353516 1.47952148 -0.02707031 2.24169922 -0.04101562 C8.87437219 0.01236605 14.3179042 1.50957352 19.625 5.6875 C21.95019911 8.7173049 22.199944 10.65417789 22.6875 14.375 C21.96304688 13.96507813 21.23859375 13.55515625 20.4921875 13.1328125 C19.52539062 12.59398438 18.55859375 12.05515625 17.5625 11.5 C16.61117187 10.96632813 15.65984375 10.43265625 14.6796875 9.8828125 C8.38941214 6.71303928 3.29742782 6.08352678 -3.625 6.1875 C-4.42873047 6.18814453 -5.23246094 6.18878906 -6.06054688 6.18945312 C-11.54181952 6.22914054 -16.87426959 6.69317573 -22.3125 7.375 C-22.3125 6.055 -22.3125 4.735 -22.3125 3.375 C-14.8185409 1.15064465 -7.79119691 0.05825194 0 0 Z " fill="#E4E4E5" transform="translate(243.3125,96.625)"/>
<path d="M0 0 C0 0.33 0 0.66 0 1 C4.455 1.99 4.455 1.99 9 3 C9 3.33 9 3.66 9 4 C1.43672963 4.12451726 -5.9717773 3.76640869 -13.5 3.0625 C-23.99311843 2.1305454 -34.47694664 1.47155192 -45 1 C-34.79971803 -9.9037497 -12.81705241 -3.2150277 0 0 Z " fill="#64686E" transform="translate(321,123)"/>
<path d="M0 0 C1.19882812 0.48919922 1.19882812 0.48919922 2.421875 0.98828125 C8.07797049 3.23876995 13.54165255 5.21791778 19.5 6.5 C24.35877342 7.63797588 26.89511774 8.92484203 30 13 C30.763125 13.928125 31.52625 14.85625 32.3125 15.8125 C32.869375 16.534375 33.42625 17.25625 34 18 C33.67 18.66 33.34 19.32 33 20 C32.40574219 19.73445313 31.81148438 19.46890625 31.19921875 19.1953125 C26.55249999 17.21521772 22.2559237 15.755352 17.25 15 C9.44174186 13.70411468 5.66238289 10.00272547 1.1015625 3.8046875 C0 2 0 2 0 0 Z " fill="#4A6B9D" transform="translate(292,343)"/>
<path d="M0 0 C0 4.78011807 -2.73026262 7.72288042 -6.015625 11.02734375 C-10.13514231 13.75032312 -14.28032236 14.57685148 -19.0625 15.625 C-20.84602477 16.02958997 -22.62862117 16.43829935 -24.41015625 16.8515625 C-25.19527588 17.02510254 -25.98039551 17.19864258 -26.78930664 17.37744141 C-29.04161431 18.0117191 -30.94688416 18.88756642 -33 20 C-30.45112571 14.53747241 -27.09310464 9.4592176 -21.50976562 6.82519531 C-18.7729284 5.95909497 -16.04970381 5.25794275 -13.25 4.625 C-11.3791709 4.16303538 -9.50932626 3.69706054 -7.640625 3.2265625 C-6.82110352 3.03658691 -6.00158203 2.84661133 -5.15722656 2.65087891 C-2.73716482 2.03473346 -2.73716482 2.03473346 0 0 Z " fill="#5674A4" transform="translate(236,343)"/>
<path d="M0 0 C4.30764815 1.56641751 8.06171464 3.68336156 12 6 C12 7.32 12 8.64 12 10 C-1.70903428 10.11916117 -15.32159605 9.95629291 -29 9 C-28.67 7.68 -28.34 6.36 -28 5 C-21.62522182 3.7792978 -15.52152558 4.08868856 -9.0625 4.4375 C-7.99708984 4.48970703 -6.93167969 4.54191406 -5.83398438 4.59570312 C-3.22229771 4.72453072 -0.6110779 4.85945498 2 5 C1.34 3.35 0.68 1.7 0 0 Z " fill="#DDE1E9" transform="translate(331,122)"/>
<path d="M0 0 C3.31202853 3.02342853 5.57571657 5.7271497 7 10 C4.69 9.67 2.38 9.34 0 9 C0 8.01 0 7.02 0 6 C-0.88020956 3.62298737 -1.48183636 2.33142687 -3.63671875 0.953125 C-18.27211579 -4.06472541 -33.07486116 0.12321151 -47.58081055 3.54101562 C-50 4 -50 4 -54 4 C-53.67 3.01 -53.34 2.02 -53 1 C-49.91019582 -0.3726409 -46.54350634 -0.95711654 -43.25 -1.6875 C-41.77708496 -2.01512329 -41.77708496 -2.01512329 -40.27441406 -2.34936523 C-28.1815005 -4.83152367 -10.78014007 -7.69370993 0 0 Z " fill="#B2B4B8" transform="translate(261,116)"/>
<path d="M0 0 C0.73080266 1.97746603 1.39421747 3.98072489 2 6 C1.67 6.66 1.34 7.32 1 8 C1.99 8 2.98 8 4 8 C3.67 8.99 3.34 9.98 3 11 C0.69 10.01 -1.62 9.02 -4 8 C-3.67 6.68 -3.34 5.36 -3 4 C-3.67546875 3.86722656 -4.3509375 3.73445313 -5.046875 3.59765625 C-5.93890625 3.42105469 -6.8309375 3.24445313 -7.75 3.0625 C-8.63171875 2.88847656 -9.5134375 2.71445313 -10.421875 2.53515625 C-13 2 -13 2 -14.85546875 1.4453125 C-18.07569198 0.77663227 -21.28793183 0.8094224 -24.5625 0.8125 C-25.26761719 0.81185547 -25.97273438 0.81121094 -26.69921875 0.81054688 C-32.61410418 0.86969573 -38.23870836 1.63291385 -44 3 C-43.67 2.01 -43.34 1.02 -43 0 C-42.01 0 -41.02 0 -40 0 C-40 -0.66 -40 -1.32 -40 -2 C-27.87448609 -6.04183797 -12.29941979 -1.90129444 0 0 Z " fill="#BABEC3" transform="translate(326,105)"/>
<path d="M0 0 C1.65 1.32 3.3 2.64 5 4 C4.67 5.32 4.34 6.64 4 8 C4.66 8 5.32 8 6 8 C4.4411666 11.82622743 2.04566418 14.25147379 -1 17 C-1.99 17.33 -2.98 17.66 -4 18 C-5.81234101 14.37531798 -6.98117409 11.94129573 -7.0625 7.875 C-5.57813053 3.85847085 -3.44323081 2.49084782 0 0 Z " fill="#9C9C9E" transform="translate(273,98)"/>
<path d="M0 0 C0.73992187 0.00797607 1.47984375 0.01595215 2.2421875 0.02416992 C9.04004749 0.19777906 15.35751838 1.43737033 21.875 3.375 C22.78765625 3.63796875 23.7003125 3.9009375 24.640625 4.171875 C29.06154847 5.53429796 29.06154847 5.53429796 30.875 6.375 C31.37 7.365 31.37 7.365 31.875 8.375 C30.06197203 8.08663345 28.2496068 7.79409973 26.4375 7.5 C25.42816406 7.33757812 24.41882813 7.17515625 23.37890625 7.0078125 C21.53268518 6.67438127 19.68623592 6.32725231 17.86743164 5.8671875 C11.59759698 4.2886296 5.63566637 4.07485224 -0.8125 4.125 C-2.32166992 4.11339844 -2.32166992 4.11339844 -3.86132812 4.1015625 C-9.00664805 4.11512959 -13.31551293 4.31027983 -18.125 6.375 C-13.56099972 0.7371173 -6.81930718 -0.13397306 0 0 Z " fill="#222428" transform="translate(294.125,113.625)"/>
<path d="M0 0 C0 0.33 0 0.66 0 1 C-0.57967529 1.02505615 -1.15935059 1.0501123 -1.7565918 1.07592773 C-4.40042107 1.19246234 -7.04394409 1.31492682 -9.6875 1.4375 C-11.05551758 1.49647461 -11.05551758 1.49647461 -12.45117188 1.55664062 C-13.78051758 1.61948242 -13.78051758 1.61948242 -15.13671875 1.68359375 C-15.94842529 1.72025146 -16.76013184 1.75690918 -17.59643555 1.79467773 C-20.12181623 2.01040604 -22.51885546 2.49235416 -25 3 C-26.93651019 3.06533435 -28.87502861 3.08584303 -30.8125 3.0625 C-32.27623047 3.04896484 -32.27623047 3.04896484 -33.76953125 3.03515625 C-34.87361328 3.01775391 -34.87361328 3.01775391 -36 3 C-36 2.01 -36 1.02 -36 0 C-25.33660144 -3.01794299 -10.03501602 -5.92428657 0 0 Z " fill="#C0C1C1" transform="translate(254,96)"/>
<path d="M0 0 C0.928125 0.86625 0.928125 0.86625 1.875 1.75 C1.545 2.41 1.215 3.07 0.875 3.75 C0.215 3.151875 -0.445 2.55375 -1.125 1.9375 C-7.87014224 -2.98083289 -14.20740332 -3.74921604 -22.3125 -3.625 C-23.69526123 -3.61629883 -23.69526123 -3.61629883 -25.10595703 -3.60742188 C-31.55933063 -3.48538294 -37.27752957 -2.64256983 -43.50390625 -0.91796875 C-46.84664919 -0.06609238 -49.70138969 -0.01114347 -53.125 -0.25 C-53.125 -0.91 -53.125 -1.57 -53.125 -2.25 C-35.86363244 -6.6689101 -15.4706996 -11.13890371 0 0 Z " fill="#303136" transform="translate(263.125,116.25)"/>
<path d="M0 0 C0.33 1.32 0.66 2.64 1 4 C2.17280518 3.93941406 3.34561035 3.87882813 4.55395508 3.81640625 C9.00260963 3.58790024 13.45156872 3.36584394 17.90063477 3.14550781 C19.80794681 3.05019818 21.71517806 2.95325431 23.62231445 2.85449219 C36.42763729 2.19278819 49.17758209 1.86648144 62 2 C62.28617188 2.95132813 62.57234375 3.90265625 62.8671875 4.8828125 C64.08601362 8.23668577 65.00482255 9.20289353 68 11 C65.2980567 10.63487253 63.41609148 10.30130763 61.1875 8.6875 C60 7 60 7 60 3 C58.741875 3.350625 57.48375 3.70125 56.1875 4.0625 C53.05283612 4.93609485 52.21717892 5.07239297 49 4 C48.67 4.66 48.34 5.32 48 6 C48 5.34 48 4.68 48 4 C47.18370117 4.06493652 46.36740234 4.12987305 45.52636719 4.19677734 C36.81331287 4.85826519 28.11471245 5.28686165 19.38183594 5.55761719 C17.21004857 5.62626278 15.03867182 5.70366235 12.8671875 5.78125 C11.47918354 5.82604687 10.09116314 5.87033774 8.703125 5.9140625 C7.46208008 5.9548291 6.22103516 5.9955957 4.94238281 6.03759766 C2 6 2 6 0 5 C0 3.35 0 1.7 0 0 Z " fill="#9A9DA3" transform="translate(192,128)"/>
<path d="M0 0 C0.97493408 -0.00531738 1.94986816 -0.01063477 2.9543457 -0.01611328 C8.32688111 0.03670854 12.85740317 0.54397808 17.9375 2.3125 C17.9375 2.6425 17.9375 2.9725 17.9375 3.3125 C16.08125 3.26029297 16.08125 3.26029297 14.1875 3.20703125 C2.8900234 2.99630683 -7.96859816 3.67460068 -19.15234375 5.33325195 C-20.11269531 5.47206787 -21.07304687 5.61088379 -22.0625 5.75390625 C-22.908125 5.88482666 -23.75375 6.01574707 -24.625 6.15063477 C-27.28809182 6.32748071 -29.47928283 5.94417732 -32.0625 5.3125 C-22.72136256 -0.01867025 -10.45588492 0.02834703 0 0 Z " fill="#93979E" transform="translate(241.0625,119.6875)"/>
<path d="M0 0 C0.99644531 -0.00386719 1.99289063 -0.00773438 3.01953125 -0.01171875 C3.96957031 -0.01042969 4.91960937 -0.00914062 5.8984375 -0.0078125 C6.75872559 -0.00668457 7.61901367 -0.00555664 8.50537109 -0.00439453 C10.625 0.125 10.625 0.125 12.625 1.125 C14.99623246 1.35529956 17.37241943 1.53619942 19.75 1.6875 C21.03132813 1.77128906 22.31265625 1.85507813 23.6328125 1.94140625 C25.11394531 2.03228516 25.11394531 2.03228516 26.625 2.125 C26.625 2.455 26.625 2.785 26.625 3.125 C10.125 3.455 -6.375 3.785 -23.375 4.125 C-16.50347086 -1.02864685 -8.31241225 -0.03302945 0 0 Z " fill="#506B94" transform="translate(233.375,148.875)"/>
<path d="M0 0 C6.27 0 12.54 0 19 0 C19 0.33 19 0.66 19 1 C11.08 1.495 11.08 1.495 3 2 C3 4.31 3 6.62 3 9 C1 11 1 11 -2.84375 11.23046875 C-4.39589428 11.22647524 -5.9480394 11.21170957 -7.5 11.1875 C-8.28503906 11.18685547 -9.07007813 11.18621094 -9.87890625 11.18554688 C-15.71906304 11.14046848 -15.71906304 11.14046848 -18 10 C-17.67 9.01 -17.34 8.02 -17 7 C-17 7.66 -17 8.32 -17 9 C-10.565 8.505 -10.565 8.505 -4 8 C-7.3 7.67 -10.6 7.34 -14 7 C-14 6.67 -14 6.34 -14 6 C-8.06 5.505 -8.06 5.505 -2 5 C-1.34 3.35 -0.68 1.7 0 0 Z " fill="#CACFD6" transform="translate(276,124)"/>
<path d="M0 0 C0.66 0.66 1.32 1.32 2 2 C3.88956716 2.02704621 3.88956716 2.02704621 6.01171875 1.63671875 C10.96747215 0.96503806 15.81605532 0.81646229 20.8125 0.8125 C21.64458984 0.80025391 22.47667969 0.78800781 23.33398438 0.77539062 C24.53958008 0.77249023 24.53958008 0.77249023 25.76953125 0.76953125 C26.48729736 0.76542236 27.20506348 0.76131348 27.94458008 0.75708008 C30.31284088 1.03697312 31.93882493 1.82951698 34 3 C30.07533825 4.2264568 26.07508342 4.30243384 22 4.5 C14.98688401 4.87315838 7.9951307 5.36652959 1 6 C1 5.01 1 4.02 1 3 C-0.32 2.67 -1.64 2.34 -3 2 C-2.01 1.34 -1.02 0.68 0 0 Z " fill="#C0C3C7" transform="translate(219,101)"/>
<path d="M0 0 C1.19052979 0.12592529 2.38105957 0.25185059 3.60766602 0.3815918 C4.73229248 0.51090088 5.85691895 0.64020996 7.015625 0.7734375 C8.02399414 0.88864746 9.03236328 1.00385742 10.07128906 1.12255859 C12.64529109 1.60535992 14.49406909 2.32391433 16.75 3.625 C6.14898239 3.95796784 -4.38058224 2.95748518 -14.9375 2.125 C-16.81442354 1.9800851 -18.6913765 1.83555069 -20.56835938 1.69140625 C-25.12925736 1.3403247 -29.68972598 0.98409173 -34.25 0.625 C-24.76749641 -4.49802486 -10.25688445 -1.10404201 0 0 Z " fill="#2E3138" transform="translate(313.25,123.375)"/>
<path d="M0 0 C0 0.33 0 0.66 0 1 C-4.88830878 1.4344821 -9.77720545 1.86136821 -14.66674805 2.28173828 C-16.32414901 2.42524593 -17.98138302 2.57069742 -19.63842773 2.71826172 C-29.45771803 3.59121949 -39.13340921 4.2384141 -49 4 C-49 3.67 -49 3.34 -49 3 C-44.96715117 2.41874416 -40.93276184 1.84974137 -36.89672852 1.29101562 C-35.53006878 1.10019234 -34.16383478 0.90628906 -32.7980957 0.70898438 C-21.81836016 -0.87397125 -11.00472456 -2.04150349 0 0 Z " fill="#2B3037" transform="translate(257,123)"/>
<path d="M0 0 C1.65618795 1.39225362 3.22642202 2.88580014 4.7734375 4.3984375 C4.4434375 5.0584375 4.1134375 5.7184375 3.7734375 6.3984375 C2.9484375 5.6353125 2.1234375 4.8721875 1.2734375 4.0859375 C-2.23078555 1.15467983 -5.88424204 -0.30062439 -10.2265625 -1.6015625 C-10.80148438 -1.78976563 -11.37640625 -1.97796875 -11.96875 -2.171875 C-15.37480869 -2.82008686 -18.77333669 -2.74533003 -22.2265625 -2.7265625 C-22.938125 -2.73042969 -23.6496875 -2.73429687 -24.3828125 -2.73828125 C-27.83580263 -2.7318391 -30.90760121 -2.53410251 -34.2265625 -1.6015625 C-35.64191028 -1.53699371 -37.05993939 -1.51545211 -38.4765625 -1.5390625 C-40.3328125 -1.57 -40.3328125 -1.57 -42.2265625 -1.6015625 C-29.93792966 -8.07212581 -11.46471887 -8.24655217 0 0 Z " fill="#383C42" transform="translate(261.2265625,110.6015625)"/>
<path d="M0 0 C0.495 0.99 0.495 0.99 1 2 C-4.17565435 1.57337339 -9.22439058 0.99253445 -14.3125 -0.0625 C-24.69361077 -1.99523148 -34.00669888 -1.36447813 -44 2 C-33.44192544 -9.35311029 -13.03938302 -3.97860907 0 0 Z " fill="#202327" transform="translate(322,113)"/>
<path d="M0 0 C0.66 0.66 1.32 1.32 2 2 C1.04222656 2.02578125 0.08445313 2.0515625 -0.90234375 2.078125 C-9.32996157 2.40419673 -17.16357088 3.46969034 -25.32592773 5.62792969 C-28.97500345 6.58486281 -32.22098025 7.22747497 -36 7 C-35.67 6.01 -35.34 5.02 -35 4 C-32.1108616 3.08587049 -29.39680299 2.39813289 -26.4375 1.8125 C-25.58937744 1.63960449 -24.74125488 1.46670898 -23.86743164 1.28857422 C-15.96137913 -0.20842108 -8.02709942 -0.8907491 0 0 Z " fill="#B1B2B6" transform="translate(247,107)"/>
<path d="M0 0 C0 0.66 0 1.32 0 2 C0.99 2 1.98 2 3 2 C2.67 3.65 2.34 5.3 2 7 C0.11328125 6.73828125 0.11328125 6.73828125 -2 6 C-3.01953125 4.29296875 -3.01953125 4.29296875 -3.8125 2.1875 C-6.38369448 -3.44896162 -10.00334133 -4.80834626 -15.671875 -7.0625 C-19.77228541 -8.21754518 -23.6360889 -8.45256972 -27.875 -8.625 C-28.65875 -8.66367188 -29.4425 -8.70234375 -30.25 -8.7421875 C-32.16631367 -8.83566622 -34.08312319 -8.91888495 -36 -9 C-36 -9.33 -36 -9.66 -36 -10 C-20.90920435 -11.35524136 -11.78843258 -10.66572472 0 0 Z " fill="#9A9DA3" transform="translate(269,119)"/>
<path d="M0 0 C13.2680652 -0.13603427 26.44144836 0.25627444 39.6875 1 C41.47979265 1.09681922 43.27211038 1.19317518 45.06445312 1.2890625 C49.37660816 1.52073653 53.68838137 1.75855706 58 2 C58 2.66 58 3.32 58 4 C57.12375977 3.96970703 56.24751953 3.93941406 55.34472656 3.90820312 C52.0347195 3.79475706 48.72465993 3.68316599 45.41455078 3.57275391 C43.99297687 3.5249726 42.57142626 3.4764921 41.14990234 3.42724609 C34.26442431 3.18914558 27.39105768 2.97040181 20.5 3.03125 C15.80823227 3.05353868 11.39075654 2.68751949 6.75 2 C5.46609375 1.814375 4.1821875 1.62875 2.859375 1.4375 C1.91578125 1.293125 0.9721875 1.14875 0 1 C0 0.67 0 0.34 0 0 Z " fill="#9DA3A9" transform="translate(283,130)"/>
<path d="M0 0 C4.20810709 0.04565758 8.27399962 0.53021423 12.4375 1.125 C13.16830266 3.10246603 13.83171747 5.10572489 14.4375 7.125 C14.1075 7.785 13.7775 8.445 13.4375 9.125 C14.4275 9.125 15.4175 9.125 16.4375 9.125 C16.1075 10.115 15.7775 11.105 15.4375 12.125 C13.1275 11.135 10.8175 10.145 8.4375 9.125 C8.7675 7.805 9.0975 6.485 9.4375 5.125 C8.76203125 5.00382812 8.0865625 4.88265625 7.390625 4.7578125 C6.05257813 4.50644531 6.05257813 4.50644531 4.6875 4.25 C3.36492187 4.00636719 3.36492187 4.00636719 2.015625 3.7578125 C-0.43197744 3.15703736 -2.36849857 2.34502883 -4.5625 1.125 C-3.5625 0.125 -3.5625 0.125 0 0 Z " fill="#B0B1B5" transform="translate(313.5625,103.875)"/>
<path d="M0 0 C0.495 0.99 0.495 0.99 1 2 C-0.72945653 1.85764543 -2.45855654 1.71095618 -4.1875 1.5625 C-5.63189453 1.44068359 -5.63189453 1.44068359 -7.10546875 1.31640625 C-10 1 -10 1 -12.25 0.46875 C-16.43010131 -0.24376727 -20.58126177 -0.10351872 -24.8125 -0.0625 C-26.13797852 -0.05573242 -26.13797852 -0.05573242 -27.49023438 -0.04882812 C-29.66018559 -0.03709866 -31.83010172 -0.01916495 -34 0 C-27.21862198 -6.78137802 -7.92541193 -3.47633763 0 0 Z " fill="#2D3239" transform="translate(320,108)"/>
<path d="M0 0 C4.30764815 1.56641751 8.06171464 3.68336156 12 6 C12 7.32 12 8.64 12 10 C7.83861737 10.08159574 4.0527516 9.98248524 0 9 C0 8.34 0 7.68 0 7 C-0.66 6.67 -1.32 6.34 -2 6 C-0.35 5.67 1.3 5.34 3 5 C2.01 3.35 1.02 1.7 0 0 Z " fill="#EFF0F4" transform="translate(331,122)"/>
<path d="M0 0 C1.98 0 3.96 0 6 0 C6.05422947 1.4370809 6.09289723 2.87475462 6.125 4.3125 C6.14820313 5.11300781 6.17140625 5.91351563 6.1953125 6.73828125 C6 9 6 9 4 12 C3.34 12 2.68 12 2 12 C-1.57142857 4.71428571 -1.57142857 4.71428571 0 0 Z " fill="#6D7073" transform="translate(267,104)"/>
<path d="M0 0 C1.65 0 3.3 0 5 0 C5 0.66 5 1.32 5 2 C6.5159375 2.309375 6.5159375 2.309375 8.0625 2.625 C12.6436814 3.94721089 15.85268591 6.46139821 19 10 C21.64571011 15.06135846 21.1984193 20.42221301 21 26 C20.01 26 19.02 26 18 26 C18.04640625 25.11957031 18.0928125 24.23914063 18.140625 23.33203125 C18.17671875 22.17058594 18.2128125 21.00914062 18.25 19.8125 C18.29640625 18.66394531 18.3428125 17.51539063 18.390625 16.33203125 C17.90824636 12.21734144 16.99204766 10.83860932 14 8 C11.67059136 6.52108188 9.254066 5.34028648 6.75 4.1875 C6.1003125 3.87619141 5.450625 3.56488281 4.78125 3.24414062 C3.19278029 2.48494554 1.59708737 1.74089481 0 1 C0 0.67 0 0.34 0 0 Z " fill="#96A0B1" transform="translate(312,149)"/>
<path d="M0 0 C1.32 0.33 2.64 0.66 4 1 C3.67 2.32 3.34 3.64 3 5 C3.99 5 4.98 5 6 5 C6 5.99 6 6.98 6 8 C3.89455987 7.71767279 1.79066411 7.4238102 -0.3125 7.125 C-1.48425781 6.96257812 -2.65601563 6.80015625 -3.86328125 6.6328125 C-7.53001047 5.89307385 -9.37308268 4.62691732 -12 2 C-3.42857143 1.71428571 -3.42857143 1.71428571 0 4 C0 2.68 0 1.36 0 0 Z " fill="#A6ABB2" transform="translate(327,119)"/>
<path d="M0 0 C0.99 0.33 1.98 0.66 3 1 C5.56634861 1.22718496 8.11678107 1.41608184 10.6875 1.5625 C11.7403418 1.62727539 11.7403418 1.62727539 12.81445312 1.69335938 C14.54275206 1.7991736 16.2713511 1.90006581 18 2 C15.70176341 4.29823659 15.05119118 4.29690384 11.9375 4.5625 C8.23263383 4.55913448 8.23263383 4.55913448 7 6 C4.32941149 6.14115161 1.67567762 6.04247107 -1 6 C-1.042721 4.33388095 -1.04063832 2.66617115 -1 1 C-0.67 0.67 -0.34 0.34 0 0 Z " fill="#E5EAF2" transform="translate(195,126)"/>
<path d="M0 0 C4.455 0.99 4.455 0.99 9 2 C9 2.66 9 3.32 9 4 C16.26 4 23.52 4 31 4 C31 4.33 31 4.66 31 5 C20.77 5 10.54 5 0 5 C-0.33 4.01 -0.66 3.02 -1 2 C-0.67 1.34 -0.34 0.68 0 0 Z " fill="#7D828A" transform="translate(212,388)"/>
<path d="M0 0 C0.66 0.99 1.32 1.98 2 3 C0.68 3.33 -0.64 3.66 -2 4 C-2 4.66 -2 5.32 -2 6 C-0.35 6 1.3 6 3 6 C3 6.33 3 6.66 3 7 C-2.28 7 -7.56 7 -13 7 C-12.67 5.68 -12.34 4.36 -12 3 C-8.0186217 1.6728739 -4.14954773 1.93084087 0 2 C0 1.34 0 0.68 0 0 Z " fill="#D8DDE5" transform="translate(333,125)"/>
<path d="M0 0 C0.33 1.32 0.66 2.64 1 4 C0 5 0 5 -2.72265625 5.09765625 C-4.37587891 5.08025391 -4.37587891 5.08025391 -6.0625 5.0625 C-7.71958984 5.04896484 -7.71958984 5.04896484 -9.41015625 5.03515625 C-10.26480469 5.02355469 -11.11945313 5.01195312 -12 5 C-12.33 3.68 -12.66 2.36 -13 1 C-6.565 0.505 -6.565 0.505 0 0 Z " fill="#212A35" transform="translate(274,125)"/>
<path d="M0 0 C-3.6961958 2.46413054 -4.51292429 2.00434917 -8.75 1.1875 C-16.16874594 -0.10889867 -23.48740618 -0.60514721 -31 -1 C-31 -1.33 -31 -1.66 -31 -2 C-20.0634112 -3.22144033 -10.66608249 -2.58050383 0 0 Z " fill="#8F9296" transform="translate(318,120)"/>
<path d="M0 0 C6.56376192 1.61403982 10.28799554 4.34850532 14 10 C14.33 10.99 14.66 11.98 15 13 C12.69 12.67 10.38 12.34 8 12 C8 11.01 8 10.02 8 9 C7.36812804 6.86095756 7.36812804 6.86095756 6 5 C3.83718718 3.8774351 3.83718718 3.8774351 1.375 3.25 C0.55773437 3.00765625 -0.25953125 2.7653125 -1.1015625 2.515625 C-1.72804687 2.34546875 -2.35453125 2.1753125 -3 2 C-2.01 1.34 -1.02 0.68 0 0 Z " fill="#A7A8AE" transform="translate(253,113)"/>
<path d="M0 0 C0 0.99 0 1.98 0 3 C0.99 3.33 1.98 3.66 3 4 C0.50494038 6.49505962 -0.67328888 6.35948376 -4.125 6.625 C-5.03507813 6.69976562 -5.94515625 6.77453125 -6.8828125 6.8515625 C-7.93082031 6.92503906 -7.93082031 6.92503906 -9 7 C-8.44767304 4.29973486 -8.22293777 3.21525026 -6.1875 1.25 C-4 0 -4 0 0 0 Z " fill="#6D6E71" transform="translate(220,104)"/>
<path d="M0 0 C0 0.99 0 1.98 0 3 C-2.5614319 3.3641989 -5.12358419 3.71662798 -7.6875 4.0625 C-8.7693457 4.2181543 -8.7693457 4.2181543 -9.87304688 4.37695312 C-13.84079957 4.9023633 -17.07885111 5.10596507 -21 4 C-17.74191457 2.14046922 -14.75537475 1.46176194 -11.0625 0.875 C-10.04285156 0.70742187 -9.02320313 0.53984375 -7.97265625 0.3671875 C-5.27407618 0.03385435 -2.71461065 -0.06998996 0 0 Z " fill="#747880" transform="translate(230,121)"/>
<path d="M0 0 C0.74958984 0.00451172 1.49917969 0.00902344 2.27148438 0.01367188 C4.11852383 0.02543646 5.96552213 0.04337135 7.8125 0.0625 C7.8125 0.3925 7.8125 0.7225 7.8125 1.0625 C6.79929687 1.25585938 5.78609375 1.44921875 4.7421875 1.6484375 C3.39058432 1.91124923 2.03902408 2.17428183 0.6875 2.4375 C-0.31023437 2.62699219 -0.31023437 2.62699219 -1.328125 2.8203125 C-5.406161 3.6199274 -9.27603085 4.66119485 -13.1875 6.0625 C-13.8475 5.4025 -14.5075 4.7425 -15.1875 4.0625 C-10.20080336 0.1075337 -6.19932901 -0.07038539 0 0 Z " fill="#9CA5AC" transform="translate(293.1875,106.9375)"/>
<path d="M0 0 C0.66 0.33 1.32 0.66 2 1 C1.67 1.99 1.34 2.98 1 4 C2.32 4.33 3.64 4.66 5 5 C4.360625 5.12375 3.72125 5.2475 3.0625 5.375 C2.381875 5.58125 1.70125 5.7875 1 6 C0.67 6.66 0.34 7.32 0 8 C2.31 8 4.62 8 7 8 C5 10 5 10 1.0625 10.3125 C-1.67005991 10.24802944 -2.70882266 10.20018442 -5 8.625 C-6 7 -6 7 -6 5 C-4.02 5 -2.04 5 0 5 C0 3.35 0 1.7 0 0 Z " fill="#7C7F83" transform="translate(201,118)"/>
<path d="M0 0 C0.80179687 0.00451172 1.60359375 0.00902344 2.4296875 0.01367188 C4.41149006 0.02546832 6.39325433 0.04340395 8.375 0.0625 C8.375 0.3925 8.375 0.7225 8.375 1.0625 C7.28960937 1.17207031 6.20421875 1.28164062 5.0859375 1.39453125 C3.64055848 1.55408608 2.19524949 1.71427611 0.75 1.875 C0.03714844 1.94525391 -0.67570312 2.01550781 -1.41015625 2.08789062 C-6.02543271 2.61716545 -9.60307581 3.56842389 -13.625 6.0625 C-14.615 7.5475 -14.615 7.5475 -15.625 9.0625 C-16.285 9.0625 -16.945 9.0625 -17.625 9.0625 C-14.36265864 0.75835834 -7.91507257 -0.08351943 0 0 Z " fill="#AFB2B6" transform="translate(290.625,116.9375)"/>
<path d="M0 0 C-0.639375 0.28875 -1.27875 0.5775 -1.9375 0.875 C-4.15206079 1.82823451 -4.15206079 1.82823451 -5 4 C-9.29 4 -13.58 4 -18 4 C-17.67 3.34 -17.34 2.68 -17 2 C-13.9453125 1.11328125 -13.9453125 1.11328125 -10.125 0.3125 C-8.86945313 0.04050781 -7.61390625 -0.23148437 -6.3203125 -0.51171875 C-3 -1 -3 -1 0 0 Z " fill="#33404E" transform="translate(317,388)"/>
<path d="M0 0 C5.75 1.75 5.75 1.75 8 4 C6.35 4 4.7 4 3 4 C3 4.66 3 5.32 3 6 C3.66 6 4.32 6 5 6 C5 7.32 5 8.64 5 10 C3 9 3 9 1 7 C-1.31765729 6.28072705 -3.65095874 5.6090107 -6 5 C-5.38125 4.54625 -4.7625 4.0925 -4.125 3.625 C-1.94080167 2.02891081 -1.94080167 2.02891081 0 0 Z " fill="#8B8F95" transform="translate(322,113)"/>
<path d="M0 0 C0.79921875 0.00902344 1.5984375 0.01804687 2.421875 0.02734375 C3.02515625 0.03894531 3.6284375 0.05054687 4.25 0.0625 C3.59 0.7225 2.93 1.3825 2.25 2.0625 C2.58 2.7225 2.91 3.3825 3.25 4.0625 C-1.04 4.0625 -5.33 4.0625 -9.75 4.0625 C-9.42 3.0725 -9.09 2.0825 -8.75 1.0625 C-5.8585914 -0.0569613 -3.07237388 -0.04518197 0 0 Z " fill="#A8ACB2" transform="translate(210.75,121.9375)"/>
<path d="M0 0 C6.27 0 12.54 0 19 0 C19 0.33 19 0.66 19 1 C11.08 1.495 11.08 1.495 3 2 C3 4.31 3 6.62 3 9 C2.01 9.495 2.01 9.495 1 10 C0.855625 9.05125 0.71125 8.1025 0.5625 7.125 C0.17064601 4.1065506 0.17064601 4.1065506 -1 2 C-0.67 1.34 -0.34 0.68 0 0 Z " fill="#C3C8D1" transform="translate(276,124)"/>
<path d="M0 0 C0.66 0.66 1.32 1.32 2 2 C-1 3 -1 3 -3.6328125 2.1015625 C-7.76426496 0.74997365 -11.55827588 0.55059556 -15.875 0.375 C-16.65875 0.33632812 -17.4425 0.29765625 -18.25 0.2578125 C-20.16631367 0.16433378 -22.08312319 0.08111505 -24 0 C-24 -0.33 -24 -0.66 -24 -1 C-6.71626369 -2.5521802 -6.71626369 -2.5521802 0 0 Z " fill="#888A91" transform="translate(257,110)"/>
<path d="M0 0 C2.62527189 -0.05382106 5.24944713 -0.09358313 7.875 -0.125 C8.62136719 -0.14175781 9.36773437 -0.15851563 10.13671875 -0.17578125 C12.09194461 -0.1933959 14.04742021 -0.10320189 16 0 C16.66 0.66 17.32 1.32 18 2 C11.4 2.33 4.8 2.66 -2 3 C-1.34 2.67 -0.68 2.34 0 2 C0 1.34 0 0.68 0 0 Z " fill="#A6ABB2" transform="translate(231,107)"/>
<path d="M0 0 C3.63 0 7.26 0 11 0 C9.68 0.33 8.36 0.66 7 1 C7.33 1.99 7.66 2.98 8 4 C4.7 4 1.4 4 -2 4 C-1.34 2.68 -0.68 1.36 0 0 Z " fill="#EAEEF6" transform="translate(314,127)"/>
<path d="M0 0 C0.66 0.66 1.32 1.32 2 2 C4.66242821 2.46290221 4.66242821 2.46290221 7.625 2.625 C9.12933594 2.73714844 9.12933594 2.73714844 10.6640625 2.8515625 C11.43492187 2.90054688 12.20578125 2.94953125 13 3 C13 3.66 13 4.32 13 5 C7.06 5.495 7.06 5.495 1 6 C1 5.01 1 4.02 1 3 C-0.32 2.67 -1.64 2.34 -3 2 C-2.01 1.34 -1.02 0.68 0 0 Z " fill="#AEB0B3" transform="translate(219,101)"/>
<path d="M0 0 C4.39566759 0.40700626 6.67882522 1.94694814 10.375 4.3125 C10.045 5.3025 9.715 6.2925 9.375 7.3125 C7.95780758 6.68869308 6.5412694 6.0633997 5.125 5.4375 C4.33609375 5.08945313 3.5471875 4.74140625 2.734375 4.3828125 C0.58631392 3.40836095 -1.52329202 2.38263571 -3.625 1.3125 C-2.625 0.3125 -2.625 0.3125 0 0 Z " fill="#ACAEB3" transform="translate(251.625,103.6875)"/>
<path d="M0 0 C4.95 1.98 4.95 1.98 10 4 C8 8 8 8 6 10 C4.99421411 8.71283353 3.99553202 7.42011342 3 6.125 C2.443125 5.40570313 1.88625 4.68640625 1.3125 3.9453125 C0 2 0 2 0 0 Z " fill="#5775A8" transform="translate(292,343)"/>
<path d="M0 0 C4.69023454 0.56606279 9.34500026 1.18537505 14 2 C14 2.33 14 2.66 14 3 C8.91913204 3.84681133 4.15171623 4.09038099 -1 4 C-0.67 2.68 -0.34 1.36 0 0 Z " fill="#606266" transform="translate(203,118)"/>
<path d="M0 0 C2.625 -0.1875 2.625 -0.1875 5 0 C5.66 2.97 6.32 5.94 7 9 C6.01 9.66 5.02 10.32 4 11 C4 8.36 4 5.72 4 3 C2.02 3 0.04 3 -2 3 C-1.34 2.01 -0.68 1.02 0 0 Z " fill="#898A8C" transform="translate(269,101)"/>
<path d="M0 0 C0.66 0 1.32 0 2 0 C2.33 3.63 2.66 7.26 3 11 C2.01 11.66 1.02 12.32 0 13 C-0.19397476 11.02145742 -0.38001321 9.0421352 -0.5625 7.0625 C-0.66691406 5.96035156 -0.77132813 4.85820313 -0.87890625 3.72265625 C-0.91886719 2.82417969 -0.95882813 1.92570312 -1 1 C-0.67 0.67 -0.34 0.34 0 0 Z " fill="#B8B9B8" transform="translate(279,94)"/>
<path d="M0 0 C0.3125 2.6875 0.3125 2.6875 0 6 C-2.5 8.875 -2.5 8.875 -5 11 C-5.99 10.67 -6.98 10.34 -8 10 C-7.34 9.01 -6.68 8.02 -6 7 C-5.34 7 -4.68 7 -4 7 C-4 5.68 -4 4.36 -4 3 C-1.53571429 0 -1.53571429 0 0 0 Z " fill="#DFE2E7" transform="translate(209,387)"/>
<path d="M0 0 C1.49080078 0.29197266 1.49080078 0.29197266 3.01171875 0.58984375 C4.15060547 0.82380859 4.15060547 0.82380859 5.3125 1.0625 C5.3125 1.3925 5.3125 1.7225 5.3125 2.0625 C-3.5975 3.0525 -3.5975 3.0525 -12.6875 4.0625 C-7.81500397 -0.80999603 -6.40061131 -1.28012226 0 0 Z " fill="#70767A" transform="translate(288.6875,119.9375)"/>
<path d="M0 0 C1.30324219 0.00773437 1.30324219 0.00773437 2.6328125 0.015625 C3.49648437 0.01046875 4.36015625 0.0053125 5.25 0 C7.86254827 0.27671851 9.5078213 0.9470255 11.7578125 2.265625 C11.7578125 2.595625 11.7578125 2.925625 11.7578125 3.265625 C6.4778125 2.935625 1.1978125 2.605625 -4.2421875 2.265625 C-2.2421875 0.265625 -2.2421875 0.265625 0 0 Z " fill="#9C9C9E" transform="translate(242.2421875,93.734375)"/>
<path d="M0 0 C0.66 0.33 1.32 0.66 2 1 C1.649375 1.5775 1.29875 2.155 0.9375 2.75 C-0.14917407 5.35801776 0.06934867 6.39417629 1 9 C1.66 9 2.32 9 3 9 C3 9.66 3 10.32 3 11 C3.66 11 4.32 11 5 11 C5 11.66 5 12.32 5 13 C4.01 13 3.02 13 2 13 C0.578125 11.390625 0.578125 11.390625 -0.75 9.25 C-1.19859375 8.55390625 -1.6471875 7.8578125 -2.109375 7.140625 C-3 5 -3 5 -2.765625 2.796875 C-2 1 -2 1 0 0 Z " fill="#E3E6EA" transform="translate(323,385)"/>
<path d="M0 0 C1.98 0.495 1.98 0.495 4 1 C3.67 2.32 3.34 3.64 3 5 C3.99 5 4.98 5 6 5 C6 5.99 6 6.98 6 8 C3.69 7.67 1.38 7.34 -1 7 C-0.67 4.69 -0.34 2.38 0 0 Z " fill="#A1A4AA" transform="translate(327,119)"/>
<path d="M0 0 C2.31 0 4.62 0 7 0 C7 1.32 7 2.64 7 4 C4.36 4 1.72 4 -1 4 C-0.67 2.68 -0.34 1.36 0 0 Z " fill="#133862" transform="translate(261,148)"/>
<path d="M0 0 C-2.02096749 2.90514077 -3.2983075 3.05773694 -6.875 3.75 C-10.10239988 4.05368523 -12.85295602 3.88510612 -16 3 C-10.50725702 0.05745912 -6.15402446 -0.10256707 0 0 Z " fill="#A4A8AB" transform="translate(238,112)"/>
<path d="M0 0 C-0.33 0.66 -0.66 1.32 -1 2 C-3.50390625 2.6328125 -3.50390625 2.6328125 -6.5625 3.125 C-8.08037109 3.37636719 -8.08037109 3.37636719 -9.62890625 3.6328125 C-10.80259766 3.81457031 -10.80259766 3.81457031 -12 4 C-11.67 3.01 -11.34 2.02 -11 1 C-9.2578125 0.234375 -9.2578125 0.234375 -7.125 -0.25 C-6.07699219 -0.50523438 -6.07699219 -0.50523438 -5.0078125 -0.765625 C-3 -1 -3 -1 0 0 Z " fill="#ADB2B8" transform="translate(294,104)"/>
<path d="M0 0 C0.125 3.375 0.125 3.375 0 7 C-0.66 7.66 -1.32 8.32 -2 9 C-4.1519437 5.77208445 -4.20086443 4.71599191 -4 1 C-1 0 -1 0 0 0 Z " fill="#112E4D" transform="translate(204,374)"/>
<path d="M0 0 C5.4389165 -0.21755666 9.87080814 -0.10428384 15 2 C15 2.33 15 2.66 15 3 C9.5814234 3.22577402 5.22512279 2.46670113 0 1 C0 0.67 0 0.34 0 0 Z " fill="#1E2227" transform="translate(239,105)"/>
<path d="M0 0 C1.98 0 3.96 0 6 0 C6 2.97 6 5.94 6 9 C5.67 9 5.34 9 5 9 C4.9071875 7.824375 4.9071875 7.824375 4.8125 6.625 C4.544375 5.75875 4.27625 4.8925 4 4 C1.52363988 2.62533375 1.52363988 2.62533375 -1 2 C-0.67 1.34 -0.34 0.68 0 0 Z " fill="#797A7D" transform="translate(267,104)"/>
<path d="M0 0 C4.51617599 -0.07654536 8.59085217 -0.10228696 13 1 C11.1875 2.0625 11.1875 2.0625 9 3 C8.01 2.67 7.02 2.34 6 2 C5.67 2.66 5.34 3.32 5 4 C5 3.34 5 2.68 5 2 C3.35 1.67 1.7 1.34 0 1 C0 0.67 0 0.34 0 0 Z " fill="#A8ABAF" transform="translate(235,130)"/>
<path d="M0 0 C0.639375 0.2475 1.27875 0.495 1.9375 0.75 C2.2675 1.74 2.5975 2.73 2.9375 3.75 C0.6275 3.75 -1.6825 3.75 -4.0625 3.75 C-4.0625 2.76 -4.0625 1.77 -4.0625 0.75 C-2.0625 -0.25 -2.0625 -0.25 0 0 Z " fill="#E6EBF1" transform="translate(340.0625,128.25)"/>
<path d="M0 0 C-1.9626228 2.04795423 -3.4277307 2.94976638 -6.26953125 3.19921875 C-8.51954383 3.18858877 -10.75385562 3.12958525 -13 3 C-9.51105881 -0.48894119 -4.73283796 -0.13920112 0 0 Z " fill="#31353A" transform="translate(227,117)"/>
<path d="M0 0 C0.66 0 1.32 0 2 0 C3.09658936 3.28976808 2.79953138 4.71303767 2 8 C1.01 8 0.02 8 -1 8 C-1.04241723 5.66705225 -1.04092937 3.33297433 -1 1 C-0.67 0.67 -0.34 0.34 0 0 Z " fill="#D6DCE5" transform="translate(258,125)"/>
<path d="M0 0 C1.32 0 2.64 0 4 0 C4 0.99 4 1.98 4 3 C4.99 3 5.98 3 7 3 C6.67 3.99 6.34 4.98 6 6 C3.69 5.01 1.38 4.02 -1 3 C-0.67 2.01 -0.34 1.02 0 0 Z " fill="#ACADB2" transform="translate(323,110)"/>
<path d="M0 0 C3.3125 1.25 3.3125 1.25 4.3125 3.25 C-1.6275 2.26 -1.6275 2.26 -7.6875 1.25 C-3.6875 -0.75 -3.6875 -0.75 0 0 Z " fill="#32353A" transform="translate(321.6875,118.75)"/>
<path d="M0 0 C0 0.33 0 0.66 0 1 C-4.0527516 1.98248524 -7.83861737 2.08159574 -12 2 C-12 1.34 -12 0.68 -12 0 C-7.66726186 -0.92844389 -4.33273814 -0.92844389 0 0 Z " fill="#555559" transform="translate(222,114)"/>
<path d="M0 0 C2.04296875 0.4609375 2.04296875 0.4609375 4.1875 1.375 C4.90292969 1.67148438 5.61835938 1.96796875 6.35546875 2.2734375 C7.16951172 2.63308594 7.16951172 2.63308594 8 3 C8 3.99 8 4.98 8 6 C4.37 4.68 0.74 3.36 -3 2 C-2.01 1.34 -1.02 0.68 0 0 Z " fill="#9A9CA2" transform="translate(253,113)"/>
<path d="M0 0 C0.66 0.33 1.32 0.66 2 1 C1.34 1.4125 0.68 1.825 0 2.25 C-0.66 2.8275 -1.32 3.405 -2 4 C-2 5.32 -2 6.64 -2 8 C-3.32 7.67 -4.64 7.34 -6 7 C-5.34 7 -4.68 7 -4 7 C-4.33 5.35 -4.66 3.7 -5 2 C-2.625 0.9375 -2.625 0.9375 0 0 Z " fill="#88898A" transform="translate(214,104)"/>
<path d="M0 0 C0.66 0.33 1.32 0.66 2 1 C-1.96 4.465 -1.96 4.465 -6 8 C-6.33 7.34 -6.66 6.68 -7 6 C-2.25 1.125 -2.25 1.125 0 0 Z " fill="#24456D" transform="translate(207,360)"/>
<path d="M0 0 C-0.33 1.32 -0.66 2.64 -1 4 C-3.64 3.67 -6.28 3.34 -9 3 C-3.2 0 -3.2 0 0 0 Z " fill="#81858B" transform="translate(323,109)"/>
<path d="M0 0 C0.66 0 1.32 0 2 0 C5 5.75 5 5.75 5 8 C3.68 7.67 2.36 7.34 1 7 C0.67 4.69 0.34 2.38 0 0 Z " fill="#C3C8D1" transform="translate(318,387)"/>
<path d="M0 0 C0.33 0 0.66 0 1 0 C1.33 3.63 1.66 7.26 2 11 C1.01 11 0.02 11 -1 11 C-0.67 7.37 -0.34 3.74 0 0 Z " fill="#7E8A97" transform="translate(331,164)"/>
<path d="M0 0 C2.31 0.33 4.62 0.66 7 1 C6.67 1.66 6.34 2.32 6 3 C4.02 3 2.04 3 0 3 C0 2.01 0 1.02 0 0 Z " fill="#0C1522" transform="translate(261,126)"/>
<path d="M0 0 C1.98 0.66 3.96 1.32 6 2 C5.01 3.485 5.01 3.485 4 5 C2.68 5 1.36 5 0 5 C0 3.35 0 1.7 0 0 Z " fill="#5B5C61" transform="translate(217,105)"/>
</svg>
